<svg width="149" height="54" viewBox="0 0 149 54" fill="none" xmlns="http://www.w3.org/2000/svg">
<path fill-rule="evenodd" clip-rule="evenodd" d="M18.277 14.775C16.9377 14.2033 15.5657 13.9175 14.161 13.9175C13.0503 13.9175 12.0132 14.1053 11.0495 14.481C10.1022 14.8403 9.31 15.2977 8.673 15.853C8.05233 16.392 7.65217 16.931 7.4725 17.47V0.908H0V34.62H7.4725V23.8155C7.4725 22.9172 7.67667 22.125 8.085 21.439C8.50967 20.7367 9.05683 20.1977 9.7265 19.822C10.3962 19.43 11.0985 19.234 11.8335 19.234C12.9442 19.234 13.818 19.6015 14.455 20.3365C15.1083 21.0552 15.435 22.1332 15.435 23.5705V34.62H22.883V22.3455C22.883 20.3365 22.4502 18.7195 21.5845 17.4945C20.7188 16.2532 19.6163 15.3467 18.277 14.775ZM27.5238 14.5055V34.62H34.9718V14.5055H27.5238ZM28.3568 9.14C29.1735 9.95667 30.1698 10.365 31.3458 10.365C32.5055 10.365 33.5018 9.95667 34.3348 9.14C35.1678 8.307 35.5843 7.31883 35.5843 6.1755C35.5843 5.3915 35.3883 4.681 34.9963 4.044C34.6043 3.407 34.0898 2.90067 33.4528 2.525C32.8158 2.133 32.1135 1.937 31.3458 1.937C30.1862 1.937 29.1898 2.36167 28.3568 3.211C27.5402 4.044 27.1318 5.03217 27.1318 6.1755C27.1318 7.31883 27.5402 8.307 28.3568 9.14ZM53.2251 36.24C55.0651 37.4 56.9051 37.98 58.7451 37.98C59.7051 37.98 60.5851 37.84 61.3851 37.56C63.5451 36.8 65.1251 35.46 66.1251 33.54C66.8451 32.14 67.2051 30.62 67.2051 28.98V28.44C67.2051 28.24 67.1851 28.04 67.1451 27.84C70.0651 24.28 71.5251 20.42 71.5251 16.26C71.5251 11.98 69.6451 8.8 65.8851 6.72C65.9251 5.88 65.8051 5.08 65.5251 4.32C64.5651 1.44 62.3451 0 58.8651 0C56.5451 0 54.2851 0.74 52.0851 2.22C49.6051 3.78 47.7451 5.96 46.5051 8.76C42.4251 11.6 40.3851 14.86 40.3851 18.54C40.3851 20.02 40.7451 21.44 41.4651 22.8C40.8251 24.68 40.5051 26.46 40.5051 28.14C40.5051 30.7 41.2451 32.7 42.7251 34.14C44.3651 35.74 46.8251 36.54 50.1051 36.54C51.0651 36.54 52.1051 36.44 53.2251 36.24ZM59.2251 5.04C54.9451 5.04 51.1051 6.02 47.7051 7.98C48.9451 5.62 50.6651 3.74 52.8651 2.34C54.7451 1.1 56.7451 0.48 58.8651 0.48C62.0651 0.48 64.1251 1.78 65.0451 4.38C65.2851 5.06 65.4051 5.76 65.4051 6.48C63.4851 5.52 61.4251 5.04 59.2251 5.04ZM59.5851 31.26C57.1051 32.78 54.5851 33.78 52.0251 34.26C48.2651 30.74 46.1451 25.96 45.6651 19.92L45.5451 17.82C46.4651 16.58 47.4251 15.46 48.4251 14.46C49.4251 13.46 50.5051 12.56 51.6651 11.76C53.9851 10.16 56.1251 9.36 58.0851 9.36C58.6451 9.36 58.9251 9.22 58.9251 8.94C58.9251 8.7 58.6651 8.58 58.1451 8.58C53.7851 8.58 49.6251 10.86 45.6651 15.42C45.7451 14.5 45.8651 13.64 46.0251 12.84C46.1851 12 46.4051 11.18 46.6851 10.38C49.9651 7.34 54.1451 5.82 59.2251 5.82C61.5451 5.82 63.5651 6.38 65.2851 7.5C65.0051 8.82 64.3851 9.94 63.4251 10.86C62.5051 11.78 61.4251 12.26 60.1851 12.3C60.0251 12.3 59.9451 12.38 59.9451 12.54C59.9451 12.7 60.0251 12.78 60.1851 12.78C61.5451 12.74 62.7251 12.24 63.7251 11.28C64.7251 10.32 65.3851 9.16 65.7051 7.8C68.2251 9.6 69.4851 12.16 69.4851 15.48C69.4851 18.84 68.4451 21.98 66.3651 24.9C65.6851 23.5 64.6451 22.28 63.2451 21.24C61.8451 20.16 60.4251 19.62 58.9851 19.62C56.9851 19.62 55.4251 20.66 54.3051 22.74C54.1451 22.98 54.2451 23.1 54.6051 23.1C54.6851 23.1 54.7251 23.06 54.7251 22.98C55.7651 21.1 57.1851 20.16 58.9851 20.16C60.4251 20.16 61.8051 20.7 63.1251 21.78C64.4451 22.82 65.3851 24.06 65.9451 25.5C64.2251 27.78 62.1051 29.7 59.5851 31.26ZM44.7051 16.62C43.5051 18.18 42.6051 19.74 42.0051 21.3C41.9651 21.1 41.9451 20.82 41.9451 20.46C41.9451 18.54 42.3851 16.72 43.2651 15C43.8251 13.84 44.5451 12.74 45.4251 11.7C44.9851 13.26 44.7451 14.9 44.7051 16.62ZM50.4051 34.5H49.8651C47.2251 34.66 45.2051 34.1 43.8051 32.82C42.4051 31.54 41.7051 29.82 41.7051 27.66C41.7051 25.1 42.7051 22.24 44.7051 19.08C45.0651 25.52 47.1451 30.64 50.9451 34.44C50.7451 34.48 50.5651 34.5 50.4051 34.5ZM61.2651 37.08C60.5851 37.36 59.8451 37.5 59.0451 37.5C57.4851 37.5 55.9251 37.02 54.3651 36.06C59.1651 34.9 63.2251 32.4 66.5451 28.56C66.6251 30.48 66.2451 32.18 65.4051 33.66C64.4851 35.3 63.1051 36.44 61.2651 37.08ZM66.9651 52.8C67.8451 53.04 68.7651 53.16 69.7251 53.16C72.5651 53.16 74.6851 52.2 76.0851 50.28C76.2051 50.12 76.2651 50 76.2651 49.92C76.2651 49.8 76.2051 49.76 76.0851 49.8C75.9651 49.84 75.8051 49.96 75.6051 50.16C74.7651 51.36 73.4451 51.96 71.6451 51.96C71.0851 51.96 70.4451 51.86 69.7251 51.66C66.9251 50.94 64.1251 49.56 61.3251 47.52L54.4851 41.88C53.2051 40.84 51.9651 39.96 50.7651 39.24C49.6051 38.52 48.5051 38 47.4651 37.68C46.4251 37.36 45.5051 37.2 44.7051 37.2C43.1051 37.2 41.7851 37.66 40.7451 38.58C39.7051 39.54 39.1851 40.66 39.1851 41.94C39.1851 44.3 40.7251 46 43.8051 47.04L44.4051 47.16C44.7251 47.16 44.8851 47.08 44.8851 46.92C44.8851 46.72 44.6451 46.56 44.1651 46.44C41.6051 45.8 40.3251 44.28 40.3251 41.88C40.3251 40.36 40.9051 39.2 42.0651 38.4C42.7051 38 43.4051 37.8 44.1651 37.8C45.0051 37.8 45.8451 38 46.6851 38.4C48.5251 39.32 51.7851 41.88 56.4651 46.08C60.6251 49.76 64.1251 52 66.9651 52.8ZM80.1749 27.662C79.5706 26.6983 79.2684 25.4162 79.2684 23.8155V14.5055H71.9429V24.5995C71.9429 26.7555 72.3839 28.6338 73.2659 30.2345C74.1479 31.8188 75.4301 33.0438 77.1124 33.9095C78.7948 34.7752 80.8283 35.208 83.2129 35.208C85.6139 35.208 87.6556 34.7752 89.3379 33.9095C91.0203 33.0438 92.3024 31.8188 93.1844 30.2345C94.0828 28.6338 94.5319 26.7555 94.5319 24.5995V14.5055H87.1819V23.8155C87.1819 25.4162 86.8798 26.6983 86.2754 27.662C85.6874 28.6093 84.6666 29.083 83.2129 29.083C81.7919 29.083 80.7793 28.6093 80.1749 27.662ZM114.664 31.3615V34.62H121.989V14.5055H114.59V17.4455C114.361 16.9882 113.953 16.49 113.365 15.951C112.777 15.3957 112.009 14.922 111.062 14.53C110.115 14.1217 109.012 13.9175 107.755 13.9175C105.795 13.9175 104.08 14.3993 102.61 15.363C101.14 16.3267 99.9963 17.617 99.1797 19.234C98.363 20.8347 97.9547 22.615 97.9547 24.575C97.9547 26.535 98.363 28.3235 99.1797 29.9405C99.9963 31.5412 101.14 32.8233 102.61 33.787C104.08 34.7343 105.795 35.208 107.755 35.208C109.061 35.208 110.205 34.963 111.185 34.473C112.165 33.9667 112.949 33.4032 113.537 32.7825C114.141 32.1618 114.517 31.6882 114.664 31.3615ZM105.893 27.0495C105.468 26.3145 105.256 25.4897 105.256 24.575C105.256 23.6603 105.468 22.8437 105.893 22.125C106.317 21.39 106.881 20.8183 107.583 20.41C108.302 19.9853 109.094 19.773 109.96 19.773C110.858 19.773 111.65 19.9853 112.336 20.41C113.022 20.8183 113.561 21.39 113.953 22.125C114.361 22.8437 114.566 23.6603 114.566 24.575C114.566 25.4897 114.361 26.3145 113.953 27.0495C113.561 27.7682 113.022 28.3317 112.336 28.74C111.65 29.1483 110.858 29.3525 109.96 29.3525C109.094 29.3525 108.302 29.1483 107.583 28.74C106.881 28.3317 106.317 27.7682 105.893 27.0495ZM126.691 34.62H134.163V0.908H126.691V34.62ZM140.827 33.9095C141.709 34.7752 142.755 35.208 143.963 35.208C145.205 35.208 146.258 34.7752 147.124 33.9095C147.99 33.0275 148.422 31.9822 148.422 30.7735C148.422 29.5322 147.99 28.4787 147.124 27.613C146.258 26.731 145.205 26.29 143.963 26.29C142.755 26.29 141.709 26.731 140.827 27.613C139.962 28.4787 139.529 29.5322 139.529 30.7735C139.529 31.9822 139.962 33.0275 140.827 33.9095ZM65.128 46.86C65.8467 47.0653 66.598 47.168 67.382 47.168C68.3153 47.168 69.0853 47.028 69.692 46.748C70.308 46.468 70.77 46.0993 71.078 45.642C71.386 45.1847 71.54 44.6807 71.54 44.13C71.54 43.6167 71.4327 43.192 71.218 42.856C71.0127 42.52 70.742 42.2493 70.406 42.044C70.07 41.8387 69.6967 41.6753 69.286 41.554C68.8847 41.4327 68.4787 41.3253 68.068 41.232C67.6667 41.1387 67.298 41.0453 66.962 40.952C66.626 40.8587 66.3553 40.7373 66.15 40.588C65.9447 40.4293 65.842 40.224 65.842 39.972C65.842 39.7573 65.9027 39.5707 66.024 39.412C66.1453 39.244 66.346 39.1087 66.626 39.006C66.906 38.9033 67.2653 38.852 67.704 38.852C68.1427 38.852 68.5907 38.9173 69.048 39.048C69.5053 39.1693 69.9627 39.3607 70.42 39.622L71.12 37.9C70.6627 37.6107 70.1353 37.396 69.538 37.256C68.9407 37.1067 68.334 37.032 67.718 37.032C66.794 37.032 66.024 37.172 65.408 37.452C64.8013 37.7227 64.344 38.0913 64.036 38.558C63.7373 39.0153 63.588 39.524 63.588 40.084C63.588 40.6067 63.6907 41.036 63.896 41.372C64.1107 41.708 64.386 41.9787 64.722 42.184C65.058 42.3893 65.4267 42.5573 65.828 42.688C66.2387 42.8187 66.6447 42.9307 67.046 43.024C67.4567 43.108 67.83 43.2013 68.166 43.304C68.502 43.3973 68.7727 43.5233 68.978 43.682C69.1833 43.8313 69.286 44.0367 69.286 44.298C69.286 44.5033 69.2207 44.6853 69.09 44.844C68.9593 45.0027 68.754 45.1287 68.474 45.222C68.2033 45.306 67.844 45.348 67.396 45.348C66.808 45.348 66.2247 45.2547 65.646 45.068C65.0767 44.872 64.582 44.6247 64.162 44.326L63.392 46.034C63.8307 46.37 64.4093 46.6453 65.128 46.86ZM75.6937 46.79C76.3564 47.042 77.0751 47.168 77.8497 47.168C78.6151 47.168 79.3197 47.042 79.9637 46.79C80.6171 46.538 81.1817 46.188 81.6577 45.74C82.1431 45.2827 82.5211 44.746 82.7917 44.13C83.0624 43.5047 83.1977 42.828 83.1977 42.1C83.1977 41.3627 83.0624 40.6907 82.7917 40.084C82.5211 39.468 82.1431 38.9313 81.6577 38.474C81.1817 38.0167 80.6171 37.662 79.9637 37.41C79.3197 37.158 78.6104 37.032 77.8357 37.032C77.0704 37.032 76.3611 37.158 75.7077 37.41C75.0544 37.662 74.4851 38.0167 73.9997 38.474C73.5144 38.9313 73.1364 39.468 72.8657 40.084C72.6044 40.7 72.4737 41.372 72.4737 42.1C72.4737 42.828 72.6044 43.5 72.8657 44.116C73.1364 44.732 73.5097 45.2687 73.9857 45.726C74.4711 46.1833 75.0404 46.538 75.6937 46.79ZM79.0397 45.012C78.6757 45.1613 78.2744 45.236 77.8357 45.236C77.3971 45.236 76.9911 45.1613 76.6177 45.012C76.2444 44.8627 75.9177 44.648 75.6377 44.368C75.3671 44.088 75.1524 43.7567 74.9937 43.374C74.8444 42.982 74.7697 42.5573 74.7697 42.1C74.7697 41.6333 74.8444 41.2087 74.9937 40.826C75.1524 40.4433 75.3717 40.112 75.6517 39.832C75.9317 39.552 76.2537 39.3373 76.6177 39.188C76.9911 39.0387 77.3971 38.964 77.8357 38.964C78.2744 38.964 78.6804 39.0387 79.0537 39.188C79.4271 39.3373 79.7491 39.552 80.0197 39.832C80.2997 40.112 80.5144 40.4433 80.6637 40.826C80.8224 41.2087 80.9017 41.6333 80.9017 42.1C80.9017 42.5667 80.8224 42.9913 80.6637 43.374C80.5144 43.7567 80.2997 44.088 80.0197 44.368C79.7397 44.648 79.4131 44.8627 79.0397 45.012ZM87.1702 37.2H84.9022V47H92.0842V45.152H87.1702V37.2ZM94.3341 46.006C95.1181 46.7807 96.2054 47.168 97.5961 47.168C98.9867 47.168 100.074 46.7807 100.858 46.006C101.642 45.2313 102.034 44.1253 102.034 42.688V37.2H99.7941V42.604C99.7941 43.5373 99.6027 44.2093 99.2201 44.62C98.8374 45.0307 98.3007 45.236 97.6101 45.236C96.9194 45.236 96.3827 45.0307 96.0001 44.62C95.6174 44.2093 95.4261 43.5373 95.4261 42.604V37.2H93.1581V42.688C93.1581 44.1253 93.5501 45.2313 94.3341 46.006ZM106.141 39.048V47H108.409V39.048H111.545V37.2H103.005V39.048H106.141ZM115.034 37.2H112.766V47H115.034V37.2ZM119.963 46.79C120.626 47.042 121.345 47.168 122.119 47.168C122.885 47.168 123.589 47.042 124.233 46.79C124.887 46.538 125.451 46.188 125.927 45.74C126.413 45.2827 126.791 44.746 127.061 44.13C127.332 43.5047 127.467 42.828 127.467 42.1C127.467 41.3627 127.332 40.6907 127.061 40.084C126.791 39.468 126.413 38.9313 125.927 38.474C125.451 38.0167 124.887 37.662 124.233 37.41C123.589 37.158 122.88 37.032 122.105 37.032C121.34 37.032 120.631 37.158 119.977 37.41C119.324 37.662 118.755 38.0167 118.269 38.474C117.784 38.9313 117.406 39.468 117.135 40.084C116.874 40.7 116.743 41.372 116.743 42.1C116.743 42.828 116.874 43.5 117.135 44.116C117.406 44.732 117.779 45.2687 118.255 45.726C118.741 46.1833 119.31 46.538 119.963 46.79ZM123.309 45.012C122.945 45.1613 122.544 45.236 122.105 45.236C121.667 45.236 121.261 45.1613 120.887 45.012C120.514 44.8627 120.187 44.648 119.907 44.368C119.637 44.088 119.422 43.7567 119.263 43.374C119.114 42.982 119.039 42.5573 119.039 42.1C119.039 41.6333 119.114 41.2087 119.263 40.826C119.422 40.4433 119.641 40.112 119.921 39.832C120.201 39.552 120.523 39.3373 120.887 39.188C121.261 39.0387 121.667 38.964 122.105 38.964C122.544 38.964 122.95 39.0387 123.323 39.188C123.697 39.3373 124.019 39.552 124.289 39.832C124.569 40.112 124.784 40.4433 124.933 40.826C125.092 41.2087 125.171 41.6333 125.171 42.1C125.171 42.5667 125.092 42.9913 124.933 43.374C124.784 43.7567 124.569 44.088 124.289 44.368C124.009 44.648 123.683 44.8627 123.309 45.012ZM131.048 37.2H129.172V47H131.412V41.0518L136.298 47H138.16V37.2H135.92V43.1455L131.048 37.2ZM141.444 46.86C142.163 47.0653 142.914 47.168 143.698 47.168C144.632 47.168 145.402 47.028 146.008 46.748C146.624 46.468 147.086 46.0993 147.394 45.642C147.702 45.1847 147.856 44.6807 147.856 44.13C147.856 43.6167 147.749 43.192 147.534 42.856C147.329 42.52 147.058 42.2493 146.722 42.044C146.386 41.8387 146.013 41.6753 145.602 41.554C145.201 41.4327 144.795 41.3253 144.384 41.232C143.983 41.1387 143.614 41.0453 143.278 40.952C142.942 40.8587 142.672 40.7373 142.466 40.588C142.261 40.4293 142.158 40.224 142.158 39.972C142.158 39.7573 142.219 39.5707 142.34 39.412C142.462 39.244 142.662 39.1087 142.942 39.006C143.222 38.9033 143.582 38.852 144.02 38.852C144.459 38.852 144.907 38.9173 145.364 39.048C145.822 39.1693 146.279 39.3607 146.736 39.622L147.436 37.9C146.979 37.6107 146.452 37.396 145.854 37.256C145.257 37.1067 144.65 37.032 144.034 37.032C143.11 37.032 142.34 37.172 141.724 37.452C141.118 37.7227 140.66 38.0913 140.352 38.558C140.054 39.0153 139.904 39.524 139.904 40.084C139.904 40.6067 140.007 41.036 140.212 41.372C140.427 41.708 140.702 41.9787 141.038 42.184C141.374 42.3893 141.743 42.5573 142.144 42.688C142.555 42.8187 142.961 42.9307 143.362 43.024C143.773 43.108 144.146 43.2013 144.482 43.304C144.818 43.3973 145.089 43.5233 145.294 43.682C145.5 43.8313 145.602 44.0367 145.602 44.298C145.602 44.5033 145.537 44.6853 145.406 44.844C145.276 45.0027 145.07 45.1287 144.79 45.222C144.52 45.306 144.16 45.348 143.712 45.348C143.124 45.348 142.541 45.2547 141.962 45.068C141.393 44.872 140.898 44.6247 140.478 44.326L139.708 46.034C140.147 46.37 140.726 46.6453 141.444 46.86Z" fill="white"/>
</svg>
