<svg width="149" height="54" viewBox="0 0 149 54" fill="none" xmlns="http://www.w3.org/2000/svg">
<rect width="149" height="54" fill="#1E1E1E"/>
<rect x="-15" y="-62" width="177" height="177" fill="white"/>
<path fill-rule="evenodd" clip-rule="evenodd" d="M18.277 14.775C16.9377 14.2033 15.5657 13.9175 14.161 13.9175C13.0503 13.9175 12.0132 14.1053 11.0495 14.481C10.1022 14.8403 9.31 15.2977 8.673 15.853C8.05233 16.392 7.65217 16.931 7.4725 17.47V0.908H0V34.62H7.4725V23.8155C7.4725 22.9172 7.67667 22.125 8.085 21.439C8.50967 20.7367 9.05683 20.1977 9.7265 19.822C10.3962 19.43 11.0985 19.234 11.8335 19.234C12.9442 19.234 13.818 19.6015 14.455 20.3365C15.1083 21.0552 15.435 22.1332 15.435 23.5705V34.62H22.883V22.3455C22.883 20.3365 22.4502 18.7195 21.5845 17.4945C20.7188 16.2532 19.6163 15.3467 18.277 14.775ZM27.5238 14.5055V34.62H34.9718V14.5055H27.5238ZM28.3568 9.14C29.1735 9.95667 30.1698 10.365 31.3458 10.365C32.5055 10.365 33.5018 9.95667 34.3348 9.14C35.1678 8.307 35.5843 7.31883 35.5843 6.1755C35.5843 5.3915 35.3883 4.681 34.9963 4.044C34.6043 3.407 34.0898 2.90067 33.4528 2.525C32.8158 2.133 32.1135 1.937 31.3458 1.937C30.1862 1.937 29.1898 2.36167 28.3568 3.211C27.5402 4.044 27.1318 5.03217 27.1318 6.1755C27.1318 7.31883 27.5402 8.307 28.3568 9.14ZM53.2251 36.24C55.0651 37.4 56.9051 37.98 58.7451 37.98C59.7051 37.98 60.5851 37.84 61.3851 37.56C63.5451 36.8 65.1251 35.46 66.1251 33.54C66.8451 32.14 67.2051 30.62 67.2051 28.98V28.44C67.2051 28.24 67.1851 28.04 67.1451 27.84C70.0651 24.28 71.5251 20.42 71.5251 16.26C71.5251 11.98 69.6451 8.8 65.8851 6.72C65.9251 5.88 65.8051 5.08 65.5251 4.32C64.5651 1.44 62.3451 0 58.8651 0C56.5451 0 54.2851 0.74 52.0851 2.22C49.6051 3.78 47.7451 5.96 46.5051 8.76C42.4251 11.6 40.3851 14.86 40.3851 18.54C40.3851 20.02 40.7451 21.44 41.4651 22.8C40.8251 24.68 40.5051 26.46 40.5051 28.14C40.5051 30.7 41.2451 32.7 42.7251 34.14C44.3651 35.74 46.8251 36.54 50.1051 36.54C51.0651 36.54 52.1051 36.44 53.2251 36.24ZM59.2251 5.04C54.9451 5.04 51.1051 6.02 47.7051 7.98C48.9451 5.62 50.6651 3.74 52.8651 2.34C54.7451 1.1 56.7451 0.48 58.8651 0.48C62.0651 0.48 64.1251 1.78 65.0451 4.38C65.2851 5.06 65.4051 5.76 65.4051 6.48C63.4851 5.52 61.4251 5.04 59.2251 5.04ZM59.5851 31.26C57.1051 32.78 54.5851 33.78 52.0251 34.26C48.2651 30.74 46.1451 25.96 45.6651 19.92L45.5451 17.82C46.4651 16.58 47.4251 15.46 48.4251 14.46C49.4251 13.46 50.5051 12.56 51.6651 11.76C53.9851 10.16 56.1251 9.36 58.0851 9.36C58.6451 9.36 58.9251 9.22 58.9251 8.94C58.9251 8.7 58.6651 8.58 58.1451 8.58C53.7851 8.58 49.6251 10.86 45.6651 15.42C45.7451 14.5 45.8651 13.64 46.0251 12.84C46.1851 12 46.4051 11.18 46.6851 10.38C49.9651 7.34 54.1451 5.82 59.2251 5.82C61.5451 5.82 63.5651 6.38 65.2851 7.5C65.0051 8.82 64.3851 9.94 63.4251 10.86C62.5051 11.78 61.4251 12.26 60.1851 12.3C60.0251 12.3 59.9451 12.38 59.9451 12.54C59.9451 12.7 60.0251 12.78 60.1851 12.78C61.5451 12.74 62.7251 12.24 63.7251 11.28C64.7251 10.32 65.3851 9.16 65.7051 7.8C68.2251 9.6 69.4851 12.16 69.4851 15.48C69.4851 18.84 68.4451 21.98 66.3651 24.9C65.6851 23.5 64.6451 22.28 63.2451 21.24C61.8451 20.16 60.4251 19.62 58.9851 19.62C56.9851 19.62 55.4251 20.66 54.3051 22.74C54.1451 22.98 54.2451 23.1 54.6051 23.1C54.6851 23.1 54.7251 23.06 54.7251 22.98C55.7651 21.1 57.1851 20.16 58.9851 20.16C60.4251 20.16 61.8051 20.7 63.1251 21.78C64.4451 22.82 65.3851 24.06 65.9451 25.5C64.2251 27.78 62.1051 29.7 59.5851 31.26ZM44.7051 16.62C43.5051 18.18 42.6051 19.74 42.0051 21.3C41.9651 21.1 41.9451 20.82 41.9451 20.46C41.9451 18.54 42.3851 16.72 43.2651 15C43.8251 13.84 44.5451 12.74 45.4251 11.7C44.9851 13.26 44.7451 14.9 44.7051 16.62ZM50.4051 34.5H49.8651C47.2251 34.66 45.2051 34.1 43.8051 32.82C42.4051 31.54 41.7051 29.82 41.7051 27.66C41.7051 25.1 42.7051 22.24 44.7051 19.08C45.0651 25.52 47.1451 30.64 50.9451 34.44C50.7451 34.48 50.5651 34.5 50.4051 34.5ZM61.2651 37.08C60.5851 37.36 59.8451 37.5 59.0451 37.5C57.4851 37.5 55.9251 37.02 54.3651 36.06C59.1651 34.9 63.2251 32.4 66.5451 28.56C66.6251 30.48 66.2451 32.18 65.4051 33.66C64.4851 35.3 63.1051 36.44 61.2651 37.08ZM66.9651 52.8C67.8451 53.04 68.7651 53.16 69.7251 53.16C72.5651 53.16 74.6851 52.2 76.0851 50.28C76.2051 50.12 76.2651 50 76.2651 49.92C76.2651 49.8 76.2051 49.76 76.0851 49.8C75.9651 49.84 75.8051 49.96 75.6051 50.16C74.7651 51.36 73.4451 51.96 71.6451 51.96C71.0851 51.96 70.4451 51.86 69.7251 51.66C66.9251 50.94 64.1251 49.56 61.3251 47.52L54.4851 41.88C53.2051 40.84 51.9651 39.96 50.7651 39.24C49.6051 38.52 48.5051 38 47.4651 37.68C46.4251 37.36 45.5051 37.2 44.7051 37.2C43.1051 37.2 41.7851 37.66 40.7451 38.58C39.7051 39.54 39.1851 40.66 39.1851 41.94C39.1851 44.3 40.7251 46 43.8051 47.04L44.4051 47.16C44.7251 47.16 44.8851 47.08 44.8851 46.92C44.8851 46.72 44.6451 46.56 44.1651 46.44C41.6051 45.8 40.3251 44.28 40.3251 41.88C40.3251 40.36 40.9051 39.2 42.0651 38.4C42.7051 38 43.4051 37.8 44.1651 37.8C45.0051 37.8 45.8451 38 46.6851 38.4C48.5251 39.32 51.7851 41.88 56.4651 46.08C60.6251 49.76 64.1251 52 66.9651 52.8ZM80.1749 27.662C79.5706 26.6983 79.2684 25.4162 79.2684 23.8155V14.5055H71.9429V24.5995C71.9429 26.7555 72.3839 28.6338 73.2659 30.2345C74.1479 31.8188 75.4301 33.0438 77.1124 33.9095C78.7948 34.7752 80.8283 35.208 83.2129 35.208C85.6139 35.208 87.6556 34.7752 89.3379 33.9095C91.0203 33.0438 92.3024 31.8188 93.1844 30.2345C94.0828 28.6338 94.5319 26.7555 94.5319 24.5995V14.5055H87.1819V23.8155C87.1819 25.4162 86.8798 26.6983 86.2754 27.662C85.6874 28.6093 84.6666 29.083 83.2129 29.083C81.7919 29.083 80.7793 28.6093 80.1749 27.662ZM114.664 31.3615V34.62H121.989V14.5055H114.59V17.4455C114.361 16.9882 113.953 16.49 113.365 15.951C112.777 15.3957 112.009 14.922 111.062 14.53C110.115 14.1217 109.012 13.9175 107.755 13.9175C105.795 13.9175 104.08 14.3993 102.61 15.363C101.14 16.3267 99.9963 17.617 99.1797 19.234C98.363 20.8347 97.9547 22.615 97.9547 24.575C97.9547 26.535 98.363 28.3235 99.1797 29.9405C99.9963 31.5412 101.14 32.8233 102.61 33.787C104.08 34.7343 105.795 35.208 107.755 35.208C109.061 35.208 110.205 34.963 111.185 34.473C112.165 33.9667 112.949 33.4032 113.537 32.7825C114.141 32.1618 114.517 31.6882 114.664 31.3615ZM105.893 27.0495C105.468 26.3145 105.256 25.4897 105.256 24.575C105.256 23.6603 105.468 22.8437 105.893 22.125C106.317 21.39 106.881 20.8183 107.583 20.41C108.302 19.9853 109.094 19.773 109.96 19.773C110.858 19.773 111.65 19.9853 112.336 20.41C113.022 20.8183 113.561 21.39 113.953 22.125C114.361 22.8437 114.566 23.6603 114.566 24.575C114.566 25.4897 114.361 26.3145 113.953 27.0495C113.561 27.7682 113.022 28.3317 112.336 28.74C111.65 29.1483 110.858 29.3525 109.96 29.3525C109.094 29.3525 108.302 29.1483 107.583 28.74C106.881 28.3317 106.317 27.7682 105.893 27.0495ZM126.691 34.62H134.163V0.908H126.691V34.62ZM140.827 33.9095C141.709 34.7752 142.755 35.208 143.963 35.208C145.205 35.208 146.258 34.7752 147.124 33.9095C147.99 33.0275 148.422 31.9822 148.422 30.7735C148.422 29.5322 147.99 28.4787 147.124 27.613C146.258 26.731 145.205 26.29 143.963 26.29C142.755 26.29 141.709 26.731 140.827 27.613C139.962 28.4787 139.529 29.5322 139.529 30.7735C139.529 31.9822 139.962 33.0275 140.827 33.9095ZM66.1339 46.4789C66.8525 46.6842 67.6039 46.7869 68.3879 46.7869C69.3212 46.7869 70.0912 46.6469 70.6979 46.3669C71.3139 46.0869 71.7759 45.7182 72.0839 45.2609C72.3919 44.8036 72.5459 44.2996 72.5459 43.7489C72.5459 43.2356 72.4385 42.8109 72.2239 42.4749C72.0185 42.1389 71.7479 41.8682 71.4119 41.6629C71.0759 41.4576 70.7025 41.2942 70.2919 41.1729C69.8905 41.0516 69.4845 40.9442 69.0739 40.8509C68.6725 40.7576 68.3039 40.6642 67.9679 40.5709C67.6319 40.4776 67.3612 40.3562 67.1559 40.2069C66.9505 40.0482 66.8479 39.8429 66.8479 39.5909C66.8479 39.3762 66.9085 39.1896 67.0299 39.0309C67.1512 38.8629 67.3519 38.7276 67.6319 38.6249C67.9119 38.5222 68.2712 38.4709 68.7099 38.4709C69.1485 38.4709 69.5965 38.5362 70.0539 38.6669C70.5112 38.7882 70.9685 38.9796 71.4259 39.2409L72.1259 37.5189C71.6685 37.2296 71.1412 37.0149 70.5439 36.8749C69.9465 36.7256 69.3399 36.6509 68.7239 36.6509C67.7999 36.6509 67.0299 36.7909 66.4139 37.0709C65.8072 37.3416 65.3499 37.7102 65.0419 38.1769C64.7432 38.6342 64.5939 39.1429 64.5939 39.7029C64.5939 40.2256 64.6965 40.6549 64.9019 40.9909C65.1165 41.3269 65.3919 41.5976 65.7279 41.8029C66.0639 42.0082 66.4325 42.1762 66.8339 42.3069C67.2445 42.4376 67.6505 42.5496 68.0519 42.6429C68.4625 42.7269 68.8359 42.8202 69.1719 42.9229C69.5079 43.0162 69.7785 43.1422 69.9839 43.3009C70.1892 43.4502 70.2919 43.6556 70.2919 43.9169C70.2919 44.1222 70.2265 44.3042 70.0959 44.4629C69.9652 44.6216 69.7599 44.7476 69.4799 44.8409C69.2092 44.9249 68.8499 44.9669 68.4019 44.9669C67.8139 44.9669 67.2305 44.8736 66.6519 44.6869C66.0825 44.4909 65.5879 44.2436 65.1679 43.9449L64.3979 45.6529C64.8365 45.9889 65.4152 46.2642 66.1339 46.4789ZM76.6996 46.4089C77.3623 46.6609 78.0809 46.7869 78.8556 46.7869C79.6209 46.7869 80.3256 46.6609 80.9696 46.4089C81.6229 46.1569 82.1876 45.8069 82.6636 45.3589C83.1489 44.9016 83.5269 44.3649 83.7976 43.7489C84.0683 43.1236 84.2036 42.4469 84.2036 41.7189C84.2036 40.9816 84.0683 40.3096 83.7976 39.7029C83.5269 39.0869 83.1489 38.5502 82.6636 38.0929C82.1876 37.6356 81.6229 37.2809 80.9696 37.0289C80.3256 36.7769 79.6163 36.6509 78.8416 36.6509C78.0763 36.6509 77.3669 36.7769 76.7136 37.0289C76.0603 37.2809 75.4909 37.6356 75.0056 38.0929C74.5203 38.5502 74.1423 39.0869 73.8716 39.7029C73.6103 40.3189 73.4796 40.9909 73.4796 41.7189C73.4796 42.4469 73.6103 43.1189 73.8716 43.7349C74.1423 44.3509 74.5156 44.8876 74.9916 45.3449C75.4769 45.8022 76.0463 46.1569 76.6996 46.4089ZM80.0456 44.6309C79.6816 44.7802 79.2803 44.8549 78.8416 44.8549C78.4029 44.8549 77.9969 44.7802 77.6236 44.6309C77.2503 44.4816 76.9236 44.2669 76.6436 43.9869C76.3729 43.7069 76.1583 43.3756 75.9996 42.9929C75.8503 42.6009 75.7756 42.1762 75.7756 41.7189C75.7756 41.2522 75.8503 40.8276 75.9996 40.4449C76.1583 40.0622 76.3776 39.7309 76.6576 39.4509C76.9376 39.1709 77.2596 38.9562 77.6236 38.8069C77.9969 38.6576 78.4029 38.5829 78.8416 38.5829C79.2803 38.5829 79.6863 38.6576 80.0596 38.8069C80.4329 38.9562 80.7549 39.1709 81.0256 39.4509C81.3056 39.7309 81.5203 40.0622 81.6696 40.4449C81.8283 40.8276 81.9076 41.2522 81.9076 41.7189C81.9076 42.1856 81.8283 42.6102 81.6696 42.9929C81.5203 43.3756 81.3056 43.7069 81.0256 43.9869C80.7456 44.2669 80.4189 44.4816 80.0456 44.6309ZM88.1761 36.8189H85.9081V46.6189H93.0901V44.7709H88.1761V36.8189ZM95.3399 45.6249C96.1239 46.3996 97.2113 46.7869 98.6019 46.7869C99.9926 46.7869 101.08 46.3996 101.864 45.6249C102.648 44.8502 103.04 43.7442 103.04 42.3069V36.8189H100.8V42.2229C100.8 43.1562 100.609 43.8282 100.226 44.2389C99.8433 44.6496 99.3066 44.8549 98.6159 44.8549C97.9253 44.8549 97.3886 44.6496 97.0059 44.2389C96.6233 43.8282 96.4319 43.1562 96.4319 42.2229V36.8189H94.1639V42.3069C94.1639 43.7442 94.5559 44.8502 95.3399 45.6249ZM107.147 38.6669V46.6189H109.415V38.6669H112.551V36.8189H104.011V38.6669H107.147ZM116.039 36.8189H113.771V46.6189H116.039V36.8189ZM120.969 46.4089C121.632 46.6609 122.35 46.7869 123.125 46.7869C123.89 46.7869 124.595 46.6609 125.239 46.4089C125.892 46.1569 126.457 45.8069 126.933 45.3589C127.418 44.9016 127.796 44.3649 128.067 43.7489C128.338 43.1236 128.473 42.4469 128.473 41.7189C128.473 40.9816 128.338 40.3096 128.067 39.7029C127.796 39.0869 127.418 38.5502 126.933 38.0929C126.457 37.6356 125.892 37.2809 125.239 37.0289C124.595 36.7769 123.886 36.6509 123.111 36.6509C122.346 36.6509 121.636 36.7769 120.983 37.0289C120.33 37.2809 119.76 37.6356 119.275 38.0929C118.79 38.5502 118.412 39.0869 118.141 39.7029C117.88 40.3189 117.749 40.9909 117.749 41.7189C117.749 42.4469 117.88 43.1189 118.141 43.7349C118.412 44.3509 118.785 44.8876 119.261 45.3449C119.746 45.8022 120.316 46.1569 120.969 46.4089ZM124.315 44.6309C123.951 44.7802 123.55 44.8549 123.111 44.8549C122.672 44.8549 122.266 44.7802 121.893 44.6309C121.52 44.4816 121.193 44.2669 120.913 43.9869C120.642 43.7069 120.428 43.3756 120.269 42.9929C120.12 42.6009 120.045 42.1762 120.045 41.7189C120.045 41.2522 120.12 40.8276 120.269 40.4449C120.428 40.0622 120.647 39.7309 120.927 39.4509C121.207 39.1709 121.529 38.9562 121.893 38.8069C122.266 38.6576 122.672 38.5829 123.111 38.5829C123.55 38.5829 123.956 38.6576 124.329 38.8069C124.702 38.9562 125.024 39.1709 125.295 39.4509C125.575 39.7309 125.79 40.0622 125.939 40.4449C126.098 40.8276 126.177 41.2522 126.177 41.7189C126.177 42.1856 126.098 42.6102 125.939 42.9929C125.79 43.3756 125.575 43.7069 125.295 43.9869C125.015 44.2669 124.688 44.4816 124.315 44.6309ZM132.054 36.8189H130.178V46.6189H132.418V40.6707L137.304 46.6189H139.166V36.8189H136.926V42.7644L132.054 36.8189ZM142.45 46.4789C143.169 46.6842 143.92 46.7869 144.704 46.7869C145.638 46.7869 146.408 46.6469 147.014 46.3669C147.63 46.0869 148.092 45.7182 148.4 45.2609C148.708 44.8036 148.862 44.2996 148.862 43.7489C148.862 43.2356 148.755 42.8109 148.54 42.4749C148.335 42.1389 148.064 41.8682 147.728 41.6629C147.392 41.4576 147.019 41.2942 146.608 41.1729C146.207 41.0516 145.801 40.9442 145.39 40.8509C144.989 40.7576 144.62 40.6642 144.284 40.5709C143.948 40.4776 143.678 40.3562 143.472 40.2069C143.267 40.0482 143.164 39.8429 143.164 39.5909C143.164 39.3762 143.225 39.1896 143.346 39.0309C143.468 38.8629 143.668 38.7276 143.948 38.6249C144.228 38.5222 144.588 38.4709 145.026 38.4709C145.465 38.4709 145.913 38.5362 146.37 38.6669C146.828 38.7882 147.285 38.9796 147.742 39.2409L148.442 37.5189C147.985 37.2296 147.458 37.0149 146.86 36.8749C146.263 36.7256 145.656 36.6509 145.04 36.6509C144.116 36.6509 143.346 36.7909 142.73 37.0709C142.124 37.3416 141.666 37.7102 141.358 38.1769C141.06 38.6342 140.91 39.1429 140.91 39.7029C140.91 40.2256 141.013 40.6549 141.218 40.9909C141.433 41.3269 141.708 41.5976 142.044 41.8029C142.38 42.0082 142.749 42.1762 143.15 42.3069C143.561 42.4376 143.967 42.5496 144.368 42.6429C144.779 42.7269 145.152 42.8202 145.488 42.9229C145.824 43.0162 146.095 43.1422 146.3 43.3009C146.506 43.4502 146.608 43.6556 146.608 43.9169C146.608 44.1222 146.543 44.3042 146.412 44.4629C146.282 44.6216 146.076 44.7476 145.796 44.8409C145.526 44.9249 145.166 44.9669 144.718 44.9669C144.13 44.9669 143.547 44.8736 142.968 44.6869C142.399 44.4909 141.904 44.2436 141.484 43.9449L140.714 45.6529C141.153 45.9889 141.732 46.2642 142.45 46.4789Z" fill="white"/>
</svg>
